<svg width="314" height="46" viewBox="0 0 314 46" fill="none" xmlns="http://www.w3.org/2000/svg">
<g filter="url(#filter0_b)">
<path d="M2.08 45C1.65333 45 1.26933 44.8507 0.928 44.552C0.629333 44.2107 0.48 43.8267 0.48 43.4V1.8C0.48 1.33066 0.629333 0.946664 0.928 0.647999C1.26933 0.349331 1.65333 0.199997 2.08 0.199997H8.992C10.016 0.199997 10.7627 0.669331 11.232 1.608L22.496 21.768L33.76 1.608C34.2293 0.669331 34.976 0.199997 36 0.199997H42.848C43.3173 0.199997 43.7013 0.349331 44 0.647999C44.3413 0.946664 44.512 1.33066 44.512 1.8V43.4C44.512 43.8693 44.3413 44.2533 44 44.552C43.7013 44.8507 43.3173 45 42.848 45H35.232C34.7627 45 34.3573 44.8507 34.016 44.552C33.7173 44.2533 33.568 43.8693 33.568 43.4V19.4L26.4 32.776C25.8453 33.7573 25.0987 34.248 24.16 34.248H20.832C20.2773 34.248 19.8293 34.12 19.488 33.864C19.1467 33.608 18.848 33.2453 18.592 32.776L11.36 19.4V43.4C11.36 43.8267 11.2107 44.2107 10.912 44.552C10.6133 44.8507 10.2293 45 9.76 45H2.08ZM50.65 45C50.3567 45 50.0817 44.89 49.825 44.67C49.605 44.4133 49.495 44.1383 49.495 43.845C49.495 43.625 49.5133 43.46 49.55 43.35L62.475 8.04C62.585 7.6 62.8233 7.23333 63.19 6.94C63.5567 6.64666 64.0333 6.5 64.62 6.5H72.76C73.3467 6.5 73.8233 6.64666 74.19 6.94C74.5567 7.23333 74.795 7.6 74.905 8.04L87.775 43.35L87.885 43.845C87.885 44.1383 87.7567 44.4133 87.5 44.67C87.28 44.89 87.005 45 86.675 45H79.91C79.03 45 78.4433 44.615 78.15 43.845L76.005 38.235H61.32L59.23 43.845C58.9367 44.615 58.3317 45 57.415 45H50.65ZM73.805 30.315L68.69 15.795L63.575 30.315H73.805ZM100.82 45C100.487 45 100.187 44.8833 99.9201 44.65C99.6868 44.3833 99.5701 44.0833 99.5701 43.75V17.85H90.6701C90.3368 17.85 90.0368 17.7333 89.7701 17.5C89.5368 17.2333 89.4201 16.9333 89.4201 16.6V11.25C89.4201 10.8833 89.5368 10.5833 89.7701 10.35C90.0368 10.1167 90.3368 10 90.6701 10H117.57C117.937 10 118.237 10.1167 118.47 10.35C118.703 10.5833 118.82 10.8833 118.82 11.25V16.6C118.82 16.9667 118.703 17.2667 118.47 17.5C118.237 17.7333 117.937 17.85 117.57 17.85H108.67V43.75C108.67 44.0833 108.553 44.3833 108.32 44.65C108.087 44.8833 107.787 45 107.42 45H100.82ZM137.177 45.5C132.41 45.5 128.677 44.35 125.977 42.05C123.31 39.7167 121.894 36.35 121.727 31.95C121.694 31.05 121.677 29.5833 121.677 27.55C121.677 25.4833 121.694 23.9833 121.727 23.05C121.894 18.7167 123.344 15.3833 126.077 13.05C128.81 10.6833 132.51 9.5 137.177 9.5C140.11 9.5 142.744 10 145.077 11C147.41 11.9667 149.244 13.3667 150.577 15.2C151.944 17 152.644 19.1167 152.677 21.55V21.65C152.677 21.9167 152.56 22.15 152.327 22.35C152.127 22.5167 151.894 22.6 151.627 22.6H144.877C144.444 22.6 144.11 22.5167 143.877 22.35C143.644 22.15 143.444 21.8 143.277 21.3C142.81 19.6 142.077 18.4167 141.077 17.75C140.077 17.05 138.76 16.7 137.127 16.7C133.194 16.7 131.16 18.9 131.027 23.3C130.994 24.2 130.977 25.5833 130.977 27.45C130.977 29.3167 130.994 30.7333 131.027 31.7C131.16 36.1 133.194 38.3 137.127 38.3C138.76 38.3 140.094 37.95 141.127 37.25C142.16 36.5167 142.877 35.3333 143.277 33.7C143.41 33.2 143.594 32.8667 143.827 32.7C144.06 32.5 144.41 32.4 144.877 32.4H151.627C151.927 32.4 152.177 32.5 152.377 32.7C152.61 32.9 152.71 33.15 152.677 33.45C152.644 35.8833 151.944 38.0167 150.577 39.85C149.244 41.65 147.41 43.05 145.077 44.05C142.744 45.0167 140.11 45.5 137.177 45.5ZM159.185 45C158.818 45 158.518 44.8833 158.285 44.65C158.051 44.4167 157.935 44.1167 157.935 43.75V11.25C157.935 10.8833 158.051 10.5833 158.285 10.35C158.551 10.1167 158.851 10 159.185 10H165.635C166.001 10 166.301 10.1167 166.535 10.35C166.801 10.5833 166.935 10.8833 166.935 11.25V23.3H179.235V11.25C179.235 10.8833 179.351 10.5833 179.585 10.35C179.818 10.1167 180.118 10 180.485 10H186.935C187.301 10 187.601 10.1167 187.835 10.35C188.068 10.5833 188.185 10.8833 188.185 11.25V43.75C188.185 44.1167 188.068 44.4167 187.835 44.65C187.601 44.8833 187.301 45 186.935 45H180.485C180.118 45 179.818 44.8833 179.585 44.65C179.351 44.4167 179.235 44.1167 179.235 43.75V31.3H166.935V43.75C166.935 44.1167 166.801 44.4167 166.535 44.65C166.301 44.8833 166.001 45 165.635 45H159.185ZM196.44 45C196.107 45 195.807 44.8833 195.54 44.65C195.307 44.3833 195.19 44.0833 195.19 43.75V11.25C195.19 10.8833 195.307 10.5833 195.54 10.35C195.807 10.1167 196.107 10 196.44 10H219.44C219.807 10 220.107 10.1167 220.34 10.35C220.574 10.5833 220.69 10.8833 220.69 11.25V16.3C220.69 16.6333 220.574 16.9333 220.34 17.2C220.107 17.4333 219.807 17.55 219.44 17.55H203.99V24.9H218.44C218.807 24.9 219.107 25.0333 219.34 25.3C219.574 25.5333 219.69 25.8333 219.69 26.2V31.2C219.69 31.5333 219.574 31.8333 219.34 32.1C219.107 32.3333 218.807 32.45 218.44 32.45H203.99V43.75C203.99 44.1167 203.874 44.4167 203.64 44.65C203.407 44.8833 203.107 45 202.74 45H196.44ZM227.349 45C227.015 45 226.715 44.8833 226.449 44.65C226.215 44.3833 226.099 44.0833 226.099 43.75V11.25C226.099 10.8833 226.215 10.5833 226.449 10.35C226.715 10.1167 227.015 10 227.349 10H233.949C234.315 10 234.615 10.1167 234.849 10.35C235.082 10.5833 235.199 10.8833 235.199 11.25V37.45H250.349C250.715 37.45 251.015 37.5833 251.249 37.85C251.482 38.0833 251.599 38.3833 251.599 38.75V43.75C251.599 44.0833 251.482 44.3833 251.249 44.65C251.015 44.8833 250.715 45 250.349 45H227.349ZM257.658 45C257.291 45 256.961 44.8717 256.668 44.615C256.411 44.3217 256.283 43.9917 256.283 43.625V7.875C256.283 7.47166 256.411 7.14166 256.668 6.885C256.961 6.62833 257.291 6.5 257.658 6.5H265.028C265.431 6.5 265.761 6.62833 266.018 6.885C266.311 7.14166 266.458 7.47166 266.458 7.875V43.625C266.458 44.0283 266.311 44.3583 266.018 44.615C265.761 44.8717 265.431 45 265.028 45H257.658ZM272.377 45C271.993 45 271.651 44.872 271.353 44.616C271.097 44.3173 270.969 43.9973 270.969 43.656C270.969 43.3573 271.054 43.1013 271.225 42.888L285.177 22.152L272.249 2.312C272.121 2.056 272.057 1.8 272.057 1.544C272.057 1.20266 272.185 0.903998 272.441 0.647999C272.697 0.349331 273.017 0.199997 273.401 0.199997H282.681C283.193 0.199997 283.619 0.327998 283.961 0.584C284.302 0.839999 284.622 1.16 284.921 1.544L292.537 13.128L300.281 1.544C300.835 0.647998 301.582 0.199997 302.521 0.199997H311.353C311.694 0.199997 311.993 0.349331 312.249 0.647999C312.547 0.903998 312.697 1.20266 312.697 1.544C312.697 1.84266 312.611 2.09866 312.441 2.312L299.449 22.088L313.529 42.888C313.657 43.0587 313.721 43.3147 313.721 43.656C313.721 43.9973 313.593 44.3173 313.337 44.616C313.081 44.872 312.761 45 312.377 45H302.841C301.945 45 301.198 44.5733 300.601 43.72L292.153 31.432L283.769 43.72C283.299 44.5733 282.574 45 281.593 45H272.377Z" fill="#D50C10"/>
</g>
<defs>
<filter id="filter0_b" x="-3.52" y="-3.79999" width="321.241" height="53.3" filterUnits="userSpaceOnUse" color-interpolation-filters="sRGB">
<feFlood flood-opacity="0" result="BackgroundImageFix"/>
<feGaussianBlur in="BackgroundImage" stdDeviation="2"/>
<feComposite in2="SourceAlpha" operator="in" result="effect1_backgroundBlur"/>
<feBlend mode="normal" in="SourceGraphic" in2="effect1_backgroundBlur" result="shape"/>
</filter>
</defs>
</svg>
